{
    "asset": {
        "generator": "FBX2glTF v0.9.7",
        "version": "2.0"
    },
    "scene": 0,
    "buffers": [
        {
            "byteLength": 842600,
            "uri": "buffer.bin"
        }
    ],
    "bufferViews": [
        {
            "buffer": 0,
            "byteLength": 1044,
            "byteOffset": 0
        },
        {
            "buffer": 0,
            "byteLength": 3132,
            "byteOffset": 1044
        },
        {
            "buffer": 0,
            "byteLength": 4176,
            "byteOffset": 4176
        },
        {
            "buffer": 0,
            "byteLength": 3132,
            "byteOffset": 8352
        },
        {
            "buffer": 0,
            "byteLength": 4176,
            "byteOffset": 11484
        },
        {
            "buffer": 0,
            "byteLength": 4176,
            "byteOffset": 15660
        },
        {
            "buffer": 0,
            "byteLength": 3132,
            "byteOffset": 19836
        },
        {
            "buffer": 0,
            "byteLength": 4176,
            "byteOffset": 22968
        },
        {
            "buffer": 0,
            "byteLength": 3132,
            "byteOffset": 27144
        },
        {
            "buffer": 0,
            "byteLength": 3132,
            "byteOffset": 30276
        },
        {
            "buffer": 0,
            "byteLength": 4176,
            "byteOffset": 33408
        },
        {
            "buffer": 0,
            "byteLength": 3132,
            "byteOffset": 37584
        },
        {
            "buffer": 0,
            "byteLength": 4176,
            "byteOffset": 40716
        },
        {
            "buffer": 0,
            "byteLength": 3132,
            "byteOffset": 44892
        },
        {
            "buffer": 0,
            "byteLength": 4176,
            "byteOffset": 48024
        },
        {
            "buffer": 0,
            "byteLength": 4176,
            "byteOffset": 52200
        },
        {
            "buffer": 0,
            "byteLength": 4176,
            "byteOffset": 56376
        },
        {
            "buffer": 0,
            "byteLength": 4176,
            "byteOffset": 60552
        },
        {
            "buffer": 0,
            "byteLength": 4176,
            "byteOffset": 64728
        },
        {
            "buffer": 0,
            "byteLength": 4176,
            "byteOffset": 68904
        },
        {
            "buffer": 0,
            "byteLength": 4176,
            "byteOffset": 73080
        },
        {
            "buffer": 0,
            "byteLength": 4176,
            "byteOffset": 77256
        },
        {
            "buffer": 0,
            "byteLength": 4176,
            "byteOffset": 81432
        },
        {
            "buffer": 0,
            "byteLength": 4176,
            "byteOffset": 85608
        },
        {
            "buffer": 0,
            "byteLength": 4176,
            "byteOffset": 89784
        },
        {
            "buffer": 0,
            "byteLength": 4176,
            "byteOffset": 93960
        },
        {
            "buffer": 0,
            "byteLength": 4176,
            "byteOffset": 98136
        },
        {
            "buffer": 0,
            "byteLength": 4176,
            "byteOffset": 102312
        },
        {
            "buffer": 0,
            "byteLength": 4176,
            "byteOffset": 106488
        },
        {
            "buffer": 0,
            "byteLength": 4176,
            "byteOffset": 110664
        },
        {
            "buffer": 0,
            "byteLength": 4176,
            "byteOffset": 114840
        },
        {
            "buffer": 0,
            "byteLength": 4176,
            "byteOffset": 119016
        },
        {
            "buffer": 0,
            "byteLength": 3132,
            "byteOffset": 123192
        },
        {
            "buffer": 0,
            "byteLength": 4176,
            "byteOffset": 126324
        },
        {
            "buffer": 0,
            "byteLength": 3132,
            "byteOffset": 130500
        },
        {
            "buffer": 0,
            "byteLength": 4176,
            "byteOffset": 133632
        },
        {
            "buffer": 0,
            "byteLength": 3132,
            "byteOffset": 137808
        },
        {
            "buffer": 0,
            "byteLength": 4176,
            "byteOffset": 140940
        },
        {
            "buffer": 0,
            "byteLength": 3132,
            "byteOffset": 145116
        },
        {
            "buffer": 0,
            "byteLength": 4176,
            "byteOffset": 148248
        },
        {
            "buffer": 0,
            "byteLength": 4176,
            "byteOffset": 152424
        },
        {
            "buffer": 0,
            "byteLength": 4176,
            "byteOffset": 156600
        },
        {
            "buffer": 0,
            "byteLength": 4176,
            "byteOffset": 160776
        },
        {
            "buffer": 0,
            "byteLength": 4176,
            "byteOffset": 164952
        },
        {
            "buffer": 0,
            "byteLength": 4176,
            "byteOffset": 169128
        },
        {
            "buffer": 0,
            "byteLength": 4176,
            "byteOffset": 173304
        },
        {
            "buffer": 0,
            "byteLength": 4176,
            "byteOffset": 177480
        },
        {
            "buffer": 0,
            "byteLength": 4176,
            "byteOffset": 181656
        },
        {
            "buffer": 0,
            "byteLength": 3132,
            "byteOffset": 185832
        },
        {
            "buffer": 0,
            "byteLength": 4176,
            "byteOffset": 188964
        },
        {
            "buffer": 0,
            "byteLength": 4176,
            "byteOffset": 193140
        },
        {
            "buffer": 0,
            "byteLength": 4176,
            "byteOffset": 197316
        },
        {
            "buffer": 0,
            "byteLength": 4176,
            "byteOffset": 201492
        },
        {
            "buffer": 0,
            "byteLength": 1044,
            "byteOffset": 205668
        },
        {
            "buffer": 0,
            "byteLength": 4236,
            "byteOffset": 206712,
            "target": 34963
        },
        {
            "buffer": 0,
            "byteLength": 6408,
            "byteOffset": 210948,
            "target": 34962
        },
        {
            "buffer": 0,
            "byteLength": 6408,
            "byteOffset": 217356,
            "target": 34962
        },
        {
            "buffer": 0,
            "byteLength": 4272,
            "byteOffset": 223764,
            "target": 34962
        },
        {
            "buffer": 0,
            "byteLength": 1152,
            "byteOffset": 228036,
            "target": 34963
        },
        {
            "buffer": 0,
            "byteLength": 2160,
            "byteOffset": 229188,
            "target": 34962
        },
        {
            "buffer": 0,
            "byteLength": 2160,
            "byteOffset": 231348,
            "target": 34962
        },
        {
            "buffer": 0,
            "byteLength": 1440,
            "byteOffset": 233508,
            "target": 34962
        },
        {
            "buffer": 0,
            "byteLength": 2514,
            "byteOffset": 234948,
            "target": 34963
        },
        {
            "buffer": 0,
            "byteLength": 4584,
            "byteOffset": 237464,
            "target": 34962
        },
        {
            "buffer": 0,
            "byteLength": 4584,
            "byteOffset": 242048,
            "target": 34962
        },
        {
            "buffer": 0,
            "byteLength": 3056,
            "byteOffset": 246632,
            "target": 34962
        },
        {
            "buffer": 0,
            "byteLength": 63582,
            "byteOffset": 249688,
            "target": 34963
        },
        {
            "buffer": 0,
            "byteLength": 92688,
            "byteOffset": 313272,
            "target": 34962
        },
        {
            "buffer": 0,
            "byteLength": 92688,
            "byteOffset": 405960,
            "target": 34962
        },
        {
            "buffer": 0,
            "byteLength": 61792,
            "byteOffset": 498648,
            "target": 34962
        },
        {
            "buffer": 0,
            "byteLength": 61792,
            "byteOffset": 560440,
            "target": 34962
        },
        {
            "buffer": 0,
            "byteLength": 123584,
            "byteOffset": 622232,
            "target": 34962
        },
        {
            "buffer": 0,
            "byteLength": 92688,
            "byteOffset": 745816,
            "target": 34962
        },
        {
            "buffer": 0,
            "byteLength": 4096,
            "byteOffset": 838504
        }
    ],
    "scenes": [
        {
            "name": "Root Scene",
            "nodes": [
                0
            ]
        }
    ],
    "accessors": [
        {
            "componentType": 5126,
            "type": "SCALAR",
            "count": 261,
            "bufferView": 0,
            "byteOffset": 0,
            "min": [
                0.0
            ],
            "max": [
                10.8333330154419
            ]
        },
        {
            "componentType": 5126,
            "type": "VEC3",
            "count": 261,
            "bufferView": 1,
            "byteOffset": 0
        },
        {
            "componentType": 5126,
            "type": "VEC4",
            "count": 261,
            "bufferView": 2,
            "byteOffset": 0
        },
        {
            "componentType": 5126,
            "type": "VEC3",
            "count": 261,
            "bufferView": 3,
            "byteOffset": 0
        },
        {
            "componentType": 5126,
            "type": "VEC4",
            "count": 261,
            "bufferView": 4,
            "byteOffset": 0
        },
        {
            "componentType": 5126,
            "type": "VEC4",
            "count": 261,
            "bufferView": 5,
            "byteOffset": 0
        },
        {
            "componentType": 5126,
            "type": "VEC3",
            "count": 261,
            "bufferView": 6,
            "byteOffset": 0
        },
        {
            "componentType": 5126,
            "type": "VEC4",
            "count": 261,
            "bufferView": 7,
            "byteOffset": 0
        },
        {
            "componentType": 5126,
            "type": "VEC3",
            "count": 261,
            "bufferView": 8,
            "byteOffset": 0
        },
        {
            "componentType": 5126,
            "type": "VEC3",
            "count": 261,
            "bufferView": 9,
            "byteOffset": 0
        },
        {
            "componentType": 5126,
            "type": "VEC4",
            "count": 261,
            "bufferView": 10,
            "byteOffset": 0
        },
        {
            "componentType": 5126,
            "type": "VEC3",
            "count": 261,
            "bufferView": 11,
            "byteOffset": 0
        },
        {
            "componentType": 5126,
            "type": "VEC4",
            "count": 261,
            "bufferView": 12,
            "byteOffset": 0
        },
        {
            "componentType": 5126,
            "type": "VEC3",
            "count": 261,
            "bufferView": 13,
            "byteOffset": 0
        },
        {
            "componentType": 5126,
            "type": "VEC4",
            "count": 261,
            "bufferView": 14,
            "byteOffset": 0
        },
        {
            "componentType": 5126,
            "type": "VEC4",
            "count": 261,
            "bufferView": 15,
            "byteOffset": 0
        },
        {
            "componentType": 5126,
            "type": "VEC4",
            "count": 261,
            "bufferView": 16,
            "byteOffset": 0
        },
        {
            "componentType": 5126,
            "type": "VEC4",
            "count": 261,
            "bufferView": 17,
            "byteOffset": 0
        },
        {
            "componentType": 5126,
            "type": "VEC4",
            "count": 261,
            "bufferView": 18,
            "byteOffset": 0
        },
        {
            "componentType": 5126,
            "type": "VEC4",
            "count": 261,
            "bufferView": 19,
            "byteOffset": 0
        },
        {
            "componentType": 5126,
            "type": "VEC4",
            "count": 261,
            "bufferView": 20,
            "byteOffset": 0
        },
        {
            "componentType": 5126,
            "type": "VEC4",
            "count": 261,
            "bufferView": 21,
            "byteOffset": 0
        },
        {
            "componentType": 5126,
            "type": "VEC4",
            "count": 261,
            "bufferView": 22,
            "byteOffset": 0
        },
        {
            "componentType": 5126,
            "type": "VEC4",
            "count": 261,
            "bufferView": 23,
            "byteOffset": 0
        },
        {
            "componentType": 5126,
            "type": "VEC4",
            "count": 261,
            "bufferView": 24,
            "byteOffset": 0
        },
        {
            "componentType": 5126,
            "type": "VEC4",
            "count": 261,
            "bufferView": 25,
            "byteOffset": 0
        },
        {
            "componentType": 5126,
            "type": "VEC4",
            "count": 261,
            "bufferView": 26,
            "byteOffset": 0
        },
        {
            "componentType": 5126,
            "type": "VEC4",
            "count": 261,
            "bufferView": 27,
            "byteOffset": 0
        },
        {
            "componentType": 5126,
            "type": "VEC4",
            "count": 261,
            "bufferView": 28,
            "byteOffset": 0
        },
        {
            "componentType": 5126,
            "type": "VEC4",
            "count": 261,
            "bufferView": 29,
            "byteOffset": 0
        },
        {
            "componentType": 5126,
            "type": "VEC4",
            "count": 261,
            "bufferView": 30,
            "byteOffset": 0
        },
        {
            "componentType": 5126,
            "type": "VEC4",
            "count": 261,
            "bufferView": 31,
            "byteOffset": 0
        },
        {
            "componentType": 5126,
            "type": "VEC3",
            "count": 261,
            "bufferView": 32,
            "byteOffset": 0
        },
        {
            "componentType": 5126,
            "type": "VEC4",
            "count": 261,
            "bufferView": 33,
            "byteOffset": 0
        },
        {
            "componentType": 5126,
            "type": "VEC3",
            "count": 261,
            "bufferView": 34,
            "byteOffset": 0
        },
        {
            "componentType": 5126,
            "type": "VEC4",
            "count": 261,
            "bufferView": 35,
            "byteOffset": 0
        },
        {
            "componentType": 5126,
            "type": "VEC3",
            "count": 261,
            "bufferView": 36,
            "byteOffset": 0
        },
        {
            "componentType": 5126,
            "type": "VEC4",
            "count": 261,
            "bufferView": 37,
            "byteOffset": 0
        },
        {
            "componentType": 5126,
            "type": "VEC3",
            "count": 261,
            "bufferView": 38,
            "byteOffset": 0
        },
        {
            "componentType": 5126,
            "type": "VEC4",
            "count": 261,
            "bufferView": 39,
            "byteOffset": 0
        },
        {
            "componentType": 5126,
            "type": "VEC4",
            "count": 261,
            "bufferView": 40,
            "byteOffset": 0
        },
        {
            "componentType": 5126,
            "type": "VEC4",
            "count": 261,
            "bufferView": 41,
            "byteOffset": 0
        },
        {
            "componentType": 5126,
            "type": "VEC4",
            "count": 261,
            "bufferView": 42,
            "byteOffset": 0
        },
        {
            "componentType": 5126,
            "type": "VEC4",
            "count": 261,
            "bufferView": 43,
            "byteOffset": 0
        },
        {
            "componentType": 5126,
            "type": "VEC4",
            "count": 261,
            "bufferView": 44,
            "byteOffset": 0
        },
        {
            "componentType": 5126,
            "type": "VEC4",
            "count": 261,
            "bufferView": 45,
            "byteOffset": 0
        },
        {
            "componentType": 5126,
            "type": "VEC4",
            "count": 261,
            "bufferView": 46,
            "byteOffset": 0
        },
        {
            "componentType": 5126,
            "type": "VEC4",
            "count": 261,
            "bufferView": 47,
            "byteOffset": 0
        },
        {
            "componentType": 5126,
            "type": "VEC3",
            "count": 261,
            "bufferView": 48,
            "byteOffset": 0
        },
        {
            "componentType": 5126,
            "type": "VEC4",
            "count": 261,
            "bufferView": 49,
            "byteOffset": 0
        },
        {
            "componentType": 5126,
            "type": "VEC4",
            "count": 261,
            "bufferView": 50,
            "byteOffset": 0
        },
        {
            "componentType": 5126,
            "type": "VEC4",
            "count": 261,
            "bufferView": 51,
            "byteOffset": 0
        },
        {
            "componentType": 5126,
            "type": "VEC4",
            "count": 261,
            "bufferView": 52,
            "byteOffset": 0
        },
        {
            "componentType": 5126,
            "type": "SCALAR",
            "count": 261,
            "bufferView": 53,
            "byteOffset": 0
        },
        {
            "componentType": 5123,
            "type": "SCALAR",
            "count": 2118,
            "bufferView": 54,
            "byteOffset": 0
        },
        {
            "componentType": 5126,
            "type": "VEC3",
            "count": 534,
            "bufferView": 55,
            "byteOffset": 0,
            "min": [
                -0.0817971229553223,
                -0.152804866433144,
                -0.0270146559923887
            ],
            "max": [
                0.0817971378564835,
                1.00674951076508,
                0.0270146559923887
            ]
        },
        {
            "componentType": 5126,
            "type": "VEC3",
            "count": 534,
            "bufferView": 56,
            "byteOffset": 0
        },
        {
            "componentType": 5126,
            "type": "VEC2",
            "count": 534,
            "bufferView": 57,
            "byteOffset": 0
        },
        {
            "componentType": 5123,
            "type": "SCALAR",
            "count": 576,
            "bufferView": 58,
            "byteOffset": 0
        },
        {
            "componentType": 5126,
            "type": "VEC3",
            "count": 180,
            "bufferView": 59,
            "byteOffset": 0,
            "min": [
                -0.788799941539764,
                -0.304867506027222,
                -0.788799941539764
            ],
            "max": [
                0.788799941539764,
                0.000787496566772461,
                0.788799941539764
            ]
        },
        {
            "componentType": 5126,
            "type": "VEC3",
            "count": 180,
            "bufferView": 60,
            "byteOffset": 0
        },
        {
            "componentType": 5126,
            "type": "VEC2",
            "count": 180,
            "bufferView": 61,
            "byteOffset": 0
        },
        {
            "componentType": 5123,
            "type": "SCALAR",
            "count": 1257,
            "bufferView": 62,
            "byteOffset": 0
        },
        {
            "componentType": 5126,
            "type": "VEC3",
            "count": 382,
            "bufferView": 63,
            "byteOffset": 0,
            "min": [
                -0.772498548030853,
                -0.0853613615036011,
                -0.67376446723938
            ],
            "max": [
                0.655518651008606,
                0.644369184970856,
                0.758209824562073
            ]
        },
        {
            "componentType": 5126,
            "type": "VEC3",
            "count": 382,
            "bufferView": 64,
            "byteOffset": 0
        },
        {
            "componentType": 5126,
            "type": "VEC2",
            "count": 382,
            "bufferView": 65,
            "byteOffset": 0
        },
        {
            "componentType": 5123,
            "type": "SCALAR",
            "count": 31791,
            "bufferView": 66,
            "byteOffset": 0
        },
        {
            "componentType": 5126,
            "type": "VEC3",
            "count": 7724,
            "bufferView": 67,
            "byteOffset": 0,
            "min": [
                -0.452111542224884,
                -0.000394058821257204,
                -0.121879905462265
            ],
            "max": [
                0.452111542224884,
                1.68380868434906,
                0.210270747542381
            ]
        },
        {
            "componentType": 5126,
            "type": "VEC3",
            "count": 7724,
            "bufferView": 68,
            "byteOffset": 0
        },
        {
            "componentType": 5126,
            "type": "VEC2",
            "count": 7724,
            "bufferView": 69,
            "byteOffset": 0
        },
        {
            "componentType": 5123,
            "type": "VEC4",
            "count": 7724,
            "bufferView": 70,
            "byteOffset": 0
        },
        {
            "componentType": 5126,
            "type": "VEC4",
            "count": 7724,
            "bufferView": 71,
            "byteOffset": 0
        },
        {
            "componentType": 5126,
            "type": "VEC3",
            "count": 7724,
            "bufferView": 72,
            "byteOffset": 0,
            "min": [
                0.0,
                0.0,
                0.0
            ],
            "max": [
                0.0,
                0.0,
                0.0
            ],
            "name": "blendShape2.warrior3dmodel"
        },
        {
            "componentType": 5126,
            "type": "MAT4",
            "count": 64,
            "bufferView": 73,
            "byteOffset": 0
        }
    ],
    "images": [
        {
            "uri": "Warrior_marmoset_Base_Color.png",
            "mimeType": "image/png",
            "name": "Warrior_marmoset_Base_Color.png"
        },
        {
            "uri": "1001_Base_Color.jpg",
            "mimeType": "image/jpeg",
            "name": "1001_Base_Color.jpg"
        },
        {
            "uri": "mat6_c.jpg",
            "mimeType": "image/jpeg",
            "name": "mat6_c.jpg"
        }
    ],
    "samplers": [
        {}
    ],
    "textures": [
        {
            "name": "file2",
            "sampler": 0,
            "source": 0
        },
        {
            "name": "file3",
            "sampler": 0,
            "source": 1
        },
        {
            "name": "file5",
            "sampler": 0,
            "source": 2
        }
    ],
    "materials": [
        {
            "name": "warrior_lowpoly:Material #39",
            "alphaMode": "OPAQUE",
            "extras": {
                "fromFBX": {
                    "shadingModel": "Phong",
                    "isTruePBR": false
                }
            },
            "pbrMetallicRoughness": {
                "baseColorTexture": {
                    "index": 0,
                    "texCoord": 0
                },
                "baseColorFactor": [
                    1.0,
                    1.0,
                    1.0,
                    1.0
                ],
                "metallicFactor": 0.400000005960464,
                "roughnessFactor": 0.70710676908493
            }
        },
        {
            "name": "lambert1",
            "alphaMode": "OPAQUE",
            "extras": {
                "fromFBX": {
                    "shadingModel": "Lambert",
                    "isTruePBR": false
                }
            },
            "pbrMetallicRoughness": {
                "baseColorTexture": {
                    "index": 1,
                    "texCoord": 0
                },
                "baseColorFactor": [
                    1.0,
                    1.0,
                    1.0,
                    1.0
                ],
                "metallicFactor": 0.200000002980232,
                "roughnessFactor": 0.800000011920929
            }
        },
        {
            "name": "Grass",
            "alphaMode": "OPAQUE",
            "extras": {
                "fromFBX": {
                    "shadingModel": "Phong",
                    "isTruePBR": false
                }
            },
            "pbrMetallicRoughness": {
                "baseColorTexture": {
                    "index": 2,
                    "texCoord": 0
                },
                "baseColorFactor": [
                    1.0,
                    1.0,
                    1.0,
                    0.0
                ],
                "metallicFactor": 0.400000005960464,
                "roughnessFactor": 0.70710676908493
            }
        },
        {
            "name": "warrior_lowpoly:Material #39",
            "alphaMode": "OPAQUE",
            "extras": {
                "fromFBX": {
                    "shadingModel": "Phong",
                    "isTruePBR": false
                }
            },
            "pbrMetallicRoughness": {
                "baseColorTexture": {
                    "index": 0,
                    "texCoord": 0
                },
                "baseColorFactor": [
                    1.0,
                    1.0,
                    1.0,
                    1.0
                ],
                "metallicFactor": 0.400000005960464,
                "roughnessFactor": 0.70710676908493
            }
        }
    ],
    "meshes": [
        {
            "name": "sword_lowpoly:sword",
            "primitives": [
                {
                    "material": 3,
                    "mode": 4,
                    "attributes": {
                        "NORMAL": 56,
                        "POSITION": 55,
                        "TEXCOORD_0": 57
                    },
                    "indices": 54
                }
            ]
        },
        {
            "name": "Stage",
            "primitives": [
                {
                    "material": 1,
                    "mode": 4,
                    "attributes": {
                        "NORMAL": 60,
                        "POSITION": 59,
                        "TEXCOORD_0": 61
                    },
                    "indices": 58
                }
            ]
        },
        {
            "name": "grass",
            "primitives": [
                {
                    "material": 2,
                    "mode": 4,
                    "attributes": {
                        "NORMAL": 64,
                        "POSITION": 63,
                        "TEXCOORD_0": 65
                    },
                    "indices": 62
                }
            ]
        },
        {
            "name": "warrior_lowpoly:warrior3dmodel",
            "primitives": [
                {
                    "material": 3,
                    "mode": 4,
                    "attributes": {
                        "JOINTS_0": 70,
                        "NORMAL": 68,
                        "POSITION": 67,
                        "TEXCOORD_0": 69,
                        "WEIGHTS_0": 71
                    },
                    "indices": 66,
                    "targets": [
                        {
                            "POSITION": 72
                        }
                    ]
                }
            ],
            "weights": [
                1.0
            ]
        }
    ],
    "skins": [
        {
            "joints": [
                16,
                26,
                25,
                24,
                29,
                28,
                27,
                32,
                31,
                30,
                35,
                34,
                33,
                38,
                37,
                36,
                23,
                22,
                21,
                20,
                45,
                44,
                43,
                48,
                47,
                46,
                51,
                50,
                49,
                54,
                53,
                52,
                57,
                56,
                55,
                42,
                41,
                40,
                39,
                61,
                60,
                63,
                64,
                62,
                59,
                58,
                19,
                18,
                17,
                69,
                68,
                67,
                66,
                65,
                74,
                73,
                72,
                71,
                70,
                78,
                77,
                76,
                75,
                79
            ],
            "inverseBindMatrices": 73,
            "skeleton": 16
        }
    ],
    "animations": [
        {
            "name": "Take 001",
            "channels": [
                {
                    "sampler": 0,
                    "target": {
                        "node": 9,
                        "path": "translation"
                    }
                },
                {
                    "sampler": 1,
                    "target": {
                        "node": 9,
                        "path": "rotation"
                    }
                },
                {
                    "sampler": 2,
                    "target": {
                        "node": 10,
                        "path": "translation"
                    }
                },
                {
                    "sampler": 3,
                    "target": {
                        "node": 10,
                        "path": "rotation"
                    }
                },
                {
                    "sampler": 4,
                    "target": {
                        "node": 12,
                        "path": "rotation"
                    }
                },
                {
                    "sampler": 5,
                    "target": {
                        "node": 13,
                        "path": "translation"
                    }
                },
                {
                    "sampler": 6,
                    "target": {
                        "node": 13,
                        "path": "rotation"
                    }
                },
                {
                    "sampler": 7,
                    "target": {
                        "node": 16,
                        "path": "translation"
                    }
                },
                {
                    "sampler": 8,
                    "target": {
                        "node": 17,
                        "path": "translation"
                    }
                },
                {
                    "sampler": 9,
                    "target": {
                        "node": 17,
                        "path": "rotation"
                    }
                },
                {
                    "sampler": 10,
                    "target": {
                        "node": 18,
                        "path": "translation"
                    }
                },
                {
                    "sampler": 11,
                    "target": {
                        "node": 18,
                        "path": "rotation"
                    }
                },
                {
                    "sampler": 12,
                    "target": {
                        "node": 19,
                        "path": "translation"
                    }
                },
                {
                    "sampler": 13,
                    "target": {
                        "node": 19,
                        "path": "rotation"
                    }
                },
                {
                    "sampler": 14,
                    "target": {
                        "node": 20,
                        "path": "rotation"
                    }
                },
                {
                    "sampler": 15,
                    "target": {
                        "node": 21,
                        "path": "rotation"
                    }
                },
                {
                    "sampler": 16,
                    "target": {
                        "node": 39,
                        "path": "rotation"
                    }
                },
                {
                    "sampler": 17,
                    "target": {
                        "node": 40,
                        "path": "rotation"
                    }
                },
                {
                    "sampler": 18,
                    "target": {
                        "node": 41,
                        "path": "rotation"
                    }
                },
                {
                    "sampler": 19,
                    "target": {
                        "node": 42,
                        "path": "rotation"
                    }
                },
                {
                    "sampler": 20,
                    "target": {
                        "node": 43,
                        "path": "rotation"
                    }
                },
                {
                    "sampler": 21,
                    "target": {
                        "node": 44,
                        "path": "rotation"
                    }
                },
                {
                    "sampler": 22,
                    "target": {
                        "node": 46,
                        "path": "rotation"
                    }
                },
                {
                    "sampler": 23,
                    "target": {
                        "node": 47,
                        "path": "rotation"
                    }
                },
                {
                    "sampler": 24,
                    "target": {
                        "node": 49,
                        "path": "rotation"
                    }
                },
                {
                    "sampler": 25,
                    "target": {
                        "node": 50,
                        "path": "rotation"
                    }
                },
                {
                    "sampler": 26,
                    "target": {
                        "node": 52,
                        "path": "rotation"
                    }
                },
                {
                    "sampler": 27,
                    "target": {
                        "node": 53,
                        "path": "rotation"
                    }
                },
                {
                    "sampler": 28,
                    "target": {
                        "node": 55,
                        "path": "rotation"
                    }
                },
                {
                    "sampler": 29,
                    "target": {
                        "node": 56,
                        "path": "rotation"
                    }
                },
                {
                    "sampler": 30,
                    "target": {
                        "node": 57,
                        "path": "rotation"
                    }
                },
                {
                    "sampler": 31,
                    "target": {
                        "node": 58,
                        "path": "translation"
                    }
                },
                {
                    "sampler": 32,
                    "target": {
                        "node": 58,
                        "path": "rotation"
                    }
                },
                {
                    "sampler": 33,
                    "target": {
                        "node": 59,
                        "path": "translation"
                    }
                },
                {
                    "sampler": 34,
                    "target": {
                        "node": 59,
                        "path": "rotation"
                    }
                },
                {
                    "sampler": 35,
                    "target": {
                        "node": 60,
                        "path": "translation"
                    }
                },
                {
                    "sampler": 36,
                    "target": {
                        "node": 60,
                        "path": "rotation"
                    }
                },
                {
                    "sampler": 37,
                    "target": {
                        "node": 62,
                        "path": "translation"
                    }
                },
                {
                    "sampler": 38,
                    "target": {
                        "node": 62,
                        "path": "rotation"
                    }
                },
                {
                    "sampler": 39,
                    "target": {
                        "node": 63,
                        "path": "rotation"
                    }
                },
                {
                    "sampler": 40,
                    "target": {
                        "node": 64,
                        "path": "rotation"
                    }
                },
                {
                    "sampler": 41,
                    "target": {
                        "node": 65,
                        "path": "rotation"
                    }
                },
                {
                    "sampler": 42,
                    "target": {
                        "node": 67,
                        "path": "rotation"
                    }
                },
                {
                    "sampler": 43,
                    "target": {
                        "node": 68,
                        "path": "rotation"
                    }
                },
                {
                    "sampler": 44,
                    "target": {
                        "node": 70,
                        "path": "rotation"
                    }
                },
                {
                    "sampler": 45,
                    "target": {
                        "node": 71,
                        "path": "rotation"
                    }
                },
                {
                    "sampler": 46,
                    "target": {
                        "node": 72,
                        "path": "rotation"
                    }
                },
                {
                    "sampler": 47,
                    "target": {
                        "node": 74,
                        "path": "translation"
                    }
                },
                {
                    "sampler": 48,
                    "target": {
                        "node": 76,
                        "path": "rotation"
                    }
                },
                {
                    "sampler": 49,
                    "target": {
                        "node": 77,
                        "path": "rotation"
                    }
                },
                {
                    "sampler": 50,
                    "target": {
                        "node": 78,
                        "path": "rotation"
                    }
                },
                {
                    "sampler": 51,
                    "target": {
                        "node": 79,
                        "path": "rotation"
                    }
                },
                {
                    "sampler": 52,
                    "target": {
                        "node": 82,
                        "path": "weights"
                    }
                }
            ],
            "samplers": [
                {
                    "input": 0,
                    "interpolation": "LINEAR",
                    "output": 1
                },
                {
                    "input": 0,
                    "interpolation": "LINEAR",
                    "output": 2
                },
                {
                    "input": 0,
                    "interpolation": "LINEAR",
                    "output": 3
                },
                {
                    "input": 0,
                    "interpolation": "LINEAR",
                    "output": 4
                },
                {
                    "input": 0,
                    "interpolation": "LINEAR",
                    "output": 5
                },
                {
                    "input": 0,
                    "interpolation": "LINEAR",
                    "output": 6
                },
                {
                    "input": 0,
                    "interpolation": "LINEAR",
                    "output": 7
                },
                {
                    "input": 0,
                    "interpolation": "LINEAR",
                    "output": 8
                },
                {
                    "input": 0,
                    "interpolation": "LINEAR",
                    "output": 9
                },
                {
                    "input": 0,
                    "interpolation": "LINEAR",
                    "output": 10
                },
                {
                    "input": 0,
                    "interpolation": "LINEAR",
                    "output": 11
                },
                {
                    "input": 0,
                    "interpolation": "LINEAR",
                    "output": 12
                },
                {
                    "input": 0,
                    "interpolation": "LINEAR",
                    "output": 13
                },
                {
                    "input": 0,
                    "interpolation": "LINEAR",
                    "output": 14
                },
                {
                    "input": 0,
                    "interpolation": "LINEAR",
                    "output": 15
                },
                {
                    "input": 0,
                    "interpolation": "LINEAR",
                    "output": 16
                },
                {
                    "input": 0,
                    "interpolation": "LINEAR",
                    "output": 17
                },
                {
                    "input": 0,
                    "interpolation": "LINEAR",
                    "output": 18
                },
                {
                    "input": 0,
                    "interpolation": "LINEAR",
                    "output": 19
                },
                {
                    "input": 0,
                    "interpolation": "LINEAR",
                    "output": 20
                },
                {
                    "input": 0,
                    "interpolation": "LINEAR",
                    "output": 21
                },
                {
                    "input": 0,
                    "interpolation": "LINEAR",
                    "output": 22
                },
                {
                    "input": 0,
                    "interpolation": "LINEAR",
                    "output": 23
                },
                {
                    "input": 0,
                    "interpolation": "LINEAR",
                    "output": 24
                },
                {
                    "input": 0,
                    "interpolation": "LINEAR",
                    "output": 25
                },
                {
                    "input": 0,
                    "interpolation": "LINEAR",
                    "output": 26
                },
                {
                    "input": 0,
                    "interpolation": "LINEAR",
                    "output": 27
                },
                {
                    "input": 0,
                    "interpolation": "LINEAR",
                    "output": 28
                },
                {
                    "input": 0,
                    "interpolation": "LINEAR",
                    "output": 29
                },
                {
                    "input": 0,
                    "interpolation": "LINEAR",
                    "output": 30
                },
                {
                    "input": 0,
                    "interpolation": "LINEAR",
                    "output": 31
                },
                {
                    "input": 0,
                    "interpolation": "LINEAR",
                    "output": 32
                },
                {
                    "input": 0,
                    "interpolation": "LINEAR",
                    "output": 33
                },
                {
                    "input": 0,
                    "interpolation": "LINEAR",
                    "output": 34
                },
                {
                    "input": 0,
                    "interpolation": "LINEAR",
                    "output": 35
                },
                {
                    "input": 0,
                    "interpolation": "LINEAR",
                    "output": 36
                },
                {
                    "input": 0,
                    "interpolation": "LINEAR",
                    "output": 37
                },
                {
                    "input": 0,
                    "interpolation": "LINEAR",
                    "output": 38
                },
                {
                    "input": 0,
                    "interpolation": "LINEAR",
                    "output": 39
                },
                {
                    "input": 0,
                    "interpolation": "LINEAR",
                    "output": 40
                },
                {
                    "input": 0,
                    "interpolation": "LINEAR",
                    "output": 41
                },
                {
                    "input": 0,
                    "interpolation": "LINEAR",
                    "output": 42
                },
                {
                    "input": 0,
                    "interpolation": "LINEAR",
                    "output": 43
                },
                {
                    "input": 0,
                    "interpolation": "LINEAR",
                    "output": 44
                },
                {
                    "input": 0,
                    "interpolation": "LINEAR",
                    "output": 45
                },
                {
                    "input": 0,
                    "interpolation": "LINEAR",
                    "output": 46
                },
                {
                    "input": 0,
                    "interpolation": "LINEAR",
                    "output": 47
                },
                {
                    "input": 0,
                    "interpolation": "LINEAR",
                    "output": 48
                },
                {
                    "input": 0,
                    "interpolation": "LINEAR",
                    "output": 49
                },
                {
                    "input": 0,
                    "interpolation": "LINEAR",
                    "output": 50
                },
                {
                    "input": 0,
                    "interpolation": "LINEAR",
                    "output": 51
                },
                {
                    "input": 0,
                    "interpolation": "LINEAR",
                    "output": 52
                },
                {
                    "input": 0,
                    "interpolation": "LINEAR",
                    "output": 53
                }
            ]
        }
    ],
    "nodes": [
        {
            "name": "RootNode",
            "translation": [
                0.0,
                0.0,
                0.0
            ],
            "rotation": [
                0.0,
                0.0,
                0.0,
                1.0
            ],
            "scale": [
                1.0,
                1.0,
                1.0
            ],
            "children": [
                1,
                80,
                81,
                82
            ]
        },
        {
            "name": "warrior_rigging",
            "translation": [
                0.0,
                0.0,
                0.0
            ],
            "rotation": [
                0.0,
                0.0,
                0.0,
                1.0
            ],
            "scale": [
                1.0,
                1.0,
                1.0
            ],
            "children": [
                2,
                15
            ]
        },
        {
            "name": "warrior_rigging_MAIN_Offset_Ctrl_RestPoseGrp",
            "translation": [
                0.0,
                0.0,
                0.0
            ],
            "rotation": [
                0.0,
                0.0,
                0.0,
                1.0
            ],
            "scale": [
                1.0,
                1.0,
                1.0
            ],
            "children": [
                3
            ]
        },
        {
            "name": "warrior_rigging_MAIN_Offset_Ctrl",
            "translation": [
                0.0,
                0.0,
                0.0
            ],
            "rotation": [
                0.0,
                0.0,
                0.0,
                1.0
            ],
            "scale": [
                1.0,
                1.0,
                1.0
            ],
            "children": [
                4
            ]
        },
        {
            "name": "warrior_rigging_MAIN_Ctrl_RestPoseGrp",
            "translation": [
                0.0,
                0.0,
                0.0
            ],
            "rotation": [
                0.0,
                0.0,
                0.0,
                1.0
            ],
            "scale": [
                1.0,
                1.0,
                1.0
            ],
            "children": [
                5
            ]
        },
        {
            "name": "warrior_rigging_MAIN_Ctrl",
            "translation": [
                0.0,
                0.0,
                0.0
            ],
            "rotation": [
                0.0,
                0.0,
                0.0,
                1.0
            ],
            "scale": [
                1.0,
                1.0,
                1.0
            ],
            "children": [
                6
            ]
        },
        {
            "name": "warrior_rigging_MAIN_Inner_Ctrl_RestPoseGrp",
            "translation": [
                0.0,
                0.0,
                0.0
            ],
            "rotation": [
                0.0,
                0.0,
                0.0,
                1.0
            ],
            "scale": [
                1.0,
                1.0,
                1.0
            ],
            "children": [
                7
            ]
        },
        {
            "name": "warrior_rigging_MAIN_Inner_Ctrl",
            "translation": [
                0.0,
                0.0,
                0.0
            ],
            "rotation": [
                0.0,
                0.0,
                0.0,
                1.0
            ],
            "scale": [
                1.0,
                1.0,
                1.0
            ],
            "children": [
                8
            ]
        },
        {
            "name": "warrior_rigging_l_ArmGrp",
            "translation": [
                0.0,
                0.0,
                0.0
            ],
            "rotation": [
                0.0,
                0.0,
                0.0,
                1.0
            ],
            "scale": [
                1.0,
                1.0,
                1.0
            ],
            "children": [
                9
            ]
        },
        {
            "name": "warrior_rigging_l_Arm_ScaleGrp",
            "translation": [
                0.136477619409561,
                1.26734054088593,
                0.11962117254734
            ],
            "rotation": [
                0.517615735530853,
                0.480354964733124,
                -0.504805147647858,
                -0.49649253487587
            ],
            "scale": [
                1.0,
                1.0,
                1.0
            ],
            "children": [
                10
            ]
        },
        {
            "name": "warrior_rigging_l_Arm_WristFk_CtrlGrp",
            "translation": [
                -0.268411725759506,
                -0.154448688030243,
                -0.241280362010002
            ],
            "rotation": [
                0.0583147667348385,
                -0.568424105644226,
                0.738752722740173,
                -0.357404321432114
            ],
            "scale": [
                1.0,
                1.0,
                1.0
            ],
            "children": [
                11
            ]
        },
        {
            "name": "warrior_rigging_l_Arm_WristFk_Ctrl_RestPoseGrp",
            "translation": [
                0.0,
                0.0,
                0.0
            ],
            "rotation": [
                1.04083408558608e-17,
                -5.55111512312578e-17,
                2.42861286636753e-17,
                1.0
            ],
            "scale": [
                1.0,
                1.0,
                1.0
            ],
            "children": [
                12
            ]
        },
        {
            "name": "warrior_rigging_l_Arm_WristFk_Ctrl",
            "translation": [
                0.0,
                0.0,
                0.0
            ],
            "rotation": [
                -0.371831059455872,
                -0.364423662424088,
                0.0467465557157993,
                0.852497398853302
            ],
            "scale": [
                1.0,
                1.0,
                1.0
            ],
            "children": [
                13
            ]
        },
        {
            "name": "Locator_sword",
            "translation": [
                0.0768084973096848,
                -0.0234255660325289,
                -0.00291870953515172
            ],
            "rotation": [
                -0.20361515879631,
                0.686347544193268,
                -0.63327419757843,
                0.293992698192596
            ],
            "scale": [
                6.0,
                6.0,
                6.0
            ],
            "children": [
                14
            ]
        },
        {
            "name": "sword_lowpoly:sword",
            "translation": [
                0.0,
                0.0,
                0.0
            ],
            "rotation": [
                -5.20417042793042e-18,
                -8.32667268468867e-17,
                2.60208521396521e-18,
                1.0
            ],
            "scale": [
                0.16666667163372,
                0.16666667163372,
                0.16666667163372
            ],
            "mesh": 0
        },
        {
            "name": "warrior_rigging_SHJntGrp",
            "translation": [
                0.0,
                0.0,
                0.0
            ],
            "rotation": [
                0.0,
                0.0,
                0.0,
                1.0
            ],
            "scale": [
                1.0,
                1.0,
                1.0
            ],
            "children": [
                16
            ]
        },
        {
            "name": "warrior_rigging_ROOTSHJnt",
            "translation": [
                0.0399927981197834,
                0.86330658197403,
                0.194034665822983
            ],
            "rotation": [
                0.531225144863129,
                0.54986560344696,
                -0.470347166061401,
                -0.440705358982086
            ],
            "scale": [
                1.0,
                1.0,
                1.0
            ],
            "children": [
                17,
                65,
                70,
                75,
                79
            ]
        },
        {
            "name": "warrior_rigging_Spine_01SHJnt",
            "translation": [
                0.167373687028885,
                0.00839445926249027,
                -0.00330834765918553
            ],
            "rotation": [
                0.0677728652954102,
                0.0293360892683268,
                -0.00406470010057092,
                0.997261106967926
            ],
            "scale": [
                1.0,
                1.0,
                1.0
            ],
            "children": [
                18
            ]
        },
        {
            "name": "warrior_rigging_Spine_02SHJnt",
            "translation": [
                0.136417731642723,
                0.0115249576047063,
                -0.00318961869925261
            ],
            "rotation": [
                0.0141670098528266,
                0.00903411582112312,
                0.00284945359453559,
                0.999854743480682
            ],
            "scale": [
                1.0,
                1.0,
                1.0
            ],
            "children": [
                19
            ]
        },
        {
            "name": "warrior_rigging_Spine_TopSHJnt",
            "translation": [
                0.0843640565872192,
                0.0123171685263515,
                -0.000844257068820298
            ],
            "rotation": [
                0.00454959832131863,
                0.000137677081511356,
                0.01965706422925,
                0.999796390533447
            ],
            "scale": [
                1.0,
                1.0,
                1.0
            ],
            "children": [
                20,
                39,
                58
            ]
        },
        {
            "name": "warrior_rigging_l_Arm_ClavicleSHJnt",
            "translation": [
                0.0206030867993832,
                0.0386535115540028,
                -0.0909653455018997
            ],
            "rotation": [
                0.470844924449921,
                0.519492268562317,
                -0.499067604541779,
                0.509278297424316
            ],
            "scale": [
                1.0,
                1.0,
                1.0
            ],
            "children": [
                21
            ]
        },
        {
            "name": "warrior_rigging_l_Arm_ShoulderSHJnt",
            "translation": [
                0.0811765491962433,
                -0.0532261580228806,
                0.0100942645221949
            ],
            "rotation": [
                0.0829693302512169,
                0.163965985178947,
                -0.421061605215073,
                0.88822203874588
            ],
            "scale": [
                1.0,
                1.0,
                1.0
            ],
            "children": [
                22
            ]
        },
        {
            "name": "warrior_rigging_l_Arm_ElbowSHJnt",
            "translation": [
                0.1659185141325,
                2.9842793970188e-15,
                -3.24007483440848e-14
            ],
            "rotation": [
                -6.01803740308829e-17,
                -0.628898680210114,
                -7.99157652458752e-17,
                0.777487277984619
            ],
            "scale": [
                1.0,
                1.0,
                1.0
            ],
            "children": [
                23
            ]
        },
        {
            "name": "warrior_rigging_l_Arm_WristSHJnt",
            "translation": [
                0.220028236508369,
                -1.25055520816151e-14,
                -2.84217087951293e-16
            ],
            "rotation": [
                -0.408399522304535,
                -0.149804249405861,
                0.0467127114534378,
                0.899214327335358
            ],
            "scale": [
                1.0,
                1.0,
                1.0
            ],
            "children": [
                24,
                27,
                30,
                33,
                36
            ]
        },
        {
            "name": "warrior_rigging_l_Finger_01_01SHJnt",
            "translation": [
                0.0798880159854889,
                0.00951976142823696,
                0.0481706857681274
            ],
            "rotation": [
                0.0614478886127472,
                0.0598168037831783,
                -0.490476220846176,
                0.867224991321564
            ],
            "scale": [
                1.0,
                1.0,
                1.0
            ],
            "children": [
                25
            ]
        },
        {
            "name": "warrior_rigging_l_Finger_01_02SHJnt",
            "translation": [
                0.043095376342535,
                0.000790273305028677,
                -0.00349859916605055
            ],
            "rotation": [
                -3.62212877659926e-18,
                7.88110556116433e-18,
                -0.476341843605042,
                0.879260182380676
            ],
            "scale": [
                1.0,
                1.0,
                1.0
            ],
            "children": [
                26
            ]
        },
        {
            "name": "warrior_rigging_l_Finger_01_03SHJnt",
            "translation": [
                0.021895345300436,
                6.03961331748832e-16,
                4.26325631926939e-16
            ],
            "rotation": [
                0.0,
                -0.0,
                -6.93889390390723e-18,
                1.0
            ],
            "scale": [
                1.0,
                1.0,
                1.0
            ]
        },
        {
            "name": "warrior_rigging_l_Finger_02_01SHJnt",
            "translation": [
                0.0941646844148636,
                0.0113730141893029,
                0.0196394193917513
            ],
            "rotation": [
                0.0541327223181725,
                -0.00590250687673688,
                -0.503106832504272,
                0.862506985664368
            ],
            "scale": [
                1.0,
                1.0,
                1.0
            ],
            "children": [
                28
            ]
        },
        {
            "name": "warrior_rigging_l_Finger_02_02SHJnt",
            "translation": [
                0.0343764536082745,
                2.1316281596347e-16,
                -1.42108543975646e-16
            ],
            "rotation": [
                0.00329937366768718,
                -0.00650765700265765,
                -0.452188402414322,
                0.891892611980438
            ],
            "scale": [
                1.0,
                1.0,
                1.0
            ],
            "children": [
                29
            ]
        },
        {
            "name": "warrior_rigging_l_Finger_02_03SHJnt",
            "translation": [
                0.0223868135362864,
                -2.1316281596347e-16,
                4.26325631926939e-16
            ],
            "rotation": [
                3.46944695195361e-18,
                -4.98732999343332e-18,
                -1.38777878078145e-17,
                1.0
            ],
            "scale": [
                1.0,
                1.0,
                1.0
            ]
        },
        {
            "name": "warrior_rigging_l_Finger_03_01SHJnt",
            "translation": [
                0.0950095802545547,
                0.0145211266353726,
                -0.00736164813861251
            ],
            "rotation": [
                -0.0336042270064354,
                0.0748200565576553,
                -0.520164430141449,
                0.850118637084961
            ],
            "scale": [
                1.0,
                1.0,
                1.0
            ],
            "children": [
                31
            ]
        },
        {
            "name": "warrior_rigging_l_Finger_03_02SHJnt",
            "translation": [
                0.0290601942688227,
                -3.1974421732776e-16,
                -0.000205447635380551
            ],
            "rotation": [
                0.00965607725083828,
                -0.0216638874262571,
                -0.406998336315155,
                0.913120925426483
            ],
            "scale": [
                1.0,
                1.0,
                1.0
            ],
            "children": [
                32
            ]
        },
        {
            "name": "warrior_rigging_l_Finger_03_03SHJnt",
            "translation": [
                0.0226306691765785,
                -3.90798502550473e-16,
                0.0
            ],
            "rotation": [
                -6.93889390390723e-18,
                -1.11130722679764e-17,
                2.16840434497101e-18,
                1.0
            ],
            "scale": [
                1.0,
                1.0,
                1.0
            ]
        },
        {
            "name": "warrior_rigging_l_Finger_04_01SHJnt",
            "translation": [
                0.0928604751825333,
                0.00313657522201538,
                -0.030724048614502
            ],
            "rotation": [
                -0.0458753630518913,
                0.050459511578083,
                -0.430106937885284,
                0.900198459625244
            ],
            "scale": [
                1.0,
                1.0,
                1.0
            ],
            "children": [
                34
            ]
        },
        {
            "name": "warrior_rigging_l_Finger_04_02SHJnt",
            "translation": [
                0.0226132832467556,
                -1.42108543975646e-16,
                2.84217087951293e-16
            ],
            "rotation": [
                1.71342709072117e-18,
                1.86048106799222e-17,
                -0.454974204301834,
                0.890504598617554
            ],
            "scale": [
                1.0,
                1.0,
                1.0
            ],
            "children": [
                35
            ]
        },
        {
            "name": "warrior_rigging_l_Finger_04_03SHJnt",
            "translation": [
                0.0122760767117143,
                6.39488434655519e-16,
                -1.42108543975646e-16
            ],
            "rotation": [
                6.93889390390723e-18,
                3.46944695195361e-18,
                -2.40741243048404e-35,
                1.0
            ],
            "scale": [
                1.0,
                1.0,
                1.0
            ]
        },
        {
            "name": "warrior_rigging_l_Thumb_01_01SHJnt",
            "translation": [
                0.0501431412994862,
                -0.0480475947260857,
                0.0633156970143318
            ],
            "rotation": [
                0.810736119747162,
                -0.00938102323561907,
                -0.195335283875465,
                0.551781713962555
            ],
            "scale": [
                1.0,
                1.0,
                1.0
            ],
            "children": [
                37
            ]
        },
        {
            "name": "warrior_rigging_l_Thumb_01_02SHJnt",
            "translation": [
                0.0187108479440212,
                -5.68434175902586e-16,
                0.00163422024343163
            ],
            "rotation": [
                0.0538254491984844,
                0.107466638088226,
                -0.12144573777914,
                0.985294222831726
            ],
            "scale": [
                1.0,
                1.0,
                1.0
            ],
            "children": [
                38
            ]
        },
        {
            "name": "warrior_rigging_l_Thumb_01_03SHJnt",
            "translation": [
                0.0164274480193853,
                0.0,
                -4.26325631926939e-16
            ],
            "rotation": [
                -1.38777878078145e-17,
                -2.08166817117217e-17,
                -2.88889491658085e-34,
                1.0
            ],
            "scale": [
                1.0,
                1.0,
                1.0
            ]
        },
        {
            "name": "warrior_rigging_r_Arm_ClavicleSHJnt",
            "translation": [
                0.0206030867993832,
                0.0386535115540028,
                0.0909653455018997
            ],
            "rotation": [
                -0.556537866592407,
                0.436183243989944,
                0.436147689819336,
                0.556583285331726
            ],
            "scale": [
                1.0,
                1.0,
                1.0
            ],
            "children": [
                40
            ]
        },
        {
            "name": "warrior_rigging_r_Arm_ShoulderSHJnt",
            "translation": [
                -0.0811765491962433,
                0.0532261580228806,
                -0.0100942645221949
            ],
            "rotation": [
                0.0310712661594152,
                0.0600067265331745,
                -0.458905190229416,
                0.885911822319031
            ],
            "scale": [
                1.0,
                1.0,
                1.0
            ],
            "children": [
                41
            ]
        },
        {
            "name": "warrior_rigging_r_Arm_ElbowSHJnt",
            "translation": [
                -0.1659185141325,
                -7.10542719878232e-17,
                2.1316281596347e-16
            ],
            "rotation": [
                5.53178647647032e-18,
                -0.368161261081696,
                2.19044188405549e-18,
                0.929761946201324
            ],
            "scale": [
                1.0,
                1.0,
                1.0
            ],
            "children": [
                42
            ]
        },
        {
            "name": "warrior_rigging_r_Arm_WristSHJnt",
            "translation": [
                -0.220028236508369,
                1.6129319966229e-14,
                2.84217087951293e-16
            ],
            "rotation": [
                0.153930798172951,
                0.123458720743656,
                -0.149180144071579,
                0.968921303749084
            ],
            "scale": [
                1.0,
                1.0,
                1.0
            ],
            "children": [
                43,
                46,
                49,
                52,
                55
            ]
        },
        {
            "name": "warrior_rigging_r_Finger_01_01SHJnt",
            "translation": [
                -0.0798880159854889,
                -0.00951976049691439,
                -0.0481706857681274
            ],
            "rotation": [
                0.181740790605545,
                -0.10258773714304,
                -0.12728713452816,
                0.969661831855774
            ],
            "scale": [
                1.0,
                1.0,
                1.0
            ],
            "children": [
                44
            ]
        },
        {
            "name": "warrior_rigging_r_Finger_01_02SHJnt",
            "translation": [
                -0.043095376342535,
                -0.000790273305028677,
                0.00349859916605055
            ],
            "rotation": [
                2.94410090532649e-17,
                4.5987333629554e-18,
                -0.215739339590073,
                0.976450979709625
            ],
            "scale": [
                1.0,
                1.0,
                1.0
            ],
            "children": [
                45
            ]
        },
        {
            "name": "warrior_rigging_r_Finger_01_03SHJnt",
            "translation": [
                -0.021895345300436,
                1.06581407981735e-16,
                -1.06581407981735e-16
            ],
            "rotation": [
                2.77555756156289e-17,
                1.51788304147971e-17,
                -8.67361737988404e-18,
                1.0
            ],
            "scale": [
                1.0,
                1.0,
                1.0
            ]
        },
        {
            "name": "warrior_rigging_r_Finger_02_01SHJnt",
            "translation": [
                -0.0941646844148636,
                -0.0113730141893029,
                -0.0196394193917513
            ],
            "rotation": [
                0.0499290898442268,
                -0.0217319522053003,
                -0.223882988095284,
                0.973093628883362
            ],
            "scale": [
                1.0,
                1.0,
                1.0
            ],
            "children": [
                47
            ]
        },
        {
            "name": "warrior_rigging_r_Finger_02_02SHJnt",
            "translation": [
                -0.0343764536082745,
                -2.84217087951293e-16,
                -1.42108543975646e-16
            ],
            "rotation": [
                4.01809083996341e-05,
                -0.00729615334421396,
                -0.00550690572708845,
                0.999958217144012
            ],
            "scale": [
                1.0,
                1.0,
                1.0
            ],
            "children": [
                48
            ]
        },
        {
            "name": "warrior_rigging_r_Finger_02_03SHJnt",
            "translation": [
                -0.0223868135362864,
                3.55271346704226e-16,
                0.0
            ],
            "rotation": [
                2.88889491658085e-34,
                -4.16333634234434e-17,
                6.93889390390723e-18,
                1.0
            ],
            "scale": [
                1.0,
                1.0,
                1.0
            ]
        },
        {
            "name": "warrior_rigging_r_Finger_03_01SHJnt",
            "translation": [
                -0.0950095802545547,
                -0.0145211266353726,
                0.00736164813861251
            ],
            "rotation": [
                -0.0608006082475185,
                0.0371654704213142,
                -0.218520566821098,
                0.973226964473724
            ],
            "scale": [
                1.0,
                1.0,
                1.0
            ],
            "children": [
                50
            ]
        },
        {
            "name": "warrior_rigging_r_Finger_03_02SHJnt",
            "translation": [
                -0.0290601942688227,
                0.0,
                0.000205447635380551
            ],
            "rotation": [
                0.000130618631374091,
                -0.0237180702388287,
                -0.00550550315529108,
                0.999703526496887
            ],
            "scale": [
                1.0,
                1.0,
                1.0
            ],
            "children": [
                51
            ]
        },
        {
            "name": "warrior_rigging_r_Finger_03_03SHJnt",
            "translation": [
                -0.0226306691765785,
                -5.68434175902586e-16,
                -2.1316281596347e-16
            ],
            "rotation": [
                -4.33334237487128e-34,
                4.16333634234434e-17,
                1.04083408558608e-17,
                1.0
            ],
            "scale": [
                1.0,
                1.0,
                1.0
            ]
        },
        {
            "name": "warrior_rigging_r_Finger_04_01SHJnt",
            "translation": [
                -0.0928604751825333,
                -0.00313657545484602,
                0.030724048614502
            ],
            "rotation": [
                -0.011262645944953,
                0.0815695449709892,
                -0.155690908432007,
                0.984367787837982
            ],
            "scale": [
                1.0,
                1.0,
                1.0
            ],
            "children": [
                53
            ]
        },
        {
            "name": "warrior_rigging_r_Finger_04_02SHJnt",
            "translation": [
                -0.0226132832467556,
                2.1316281596347e-16,
                -1.42108543975646e-16
            ],
            "rotation": [
                -2.77551554078777e-17,
                1.52851409595921e-19,
                -0.00550705241039395,
                0.999984860420227
            ],
            "scale": [
                1.0,
                1.0,
                1.0
            ],
            "children": [
                54
            ]
        },
        {
            "name": "warrior_rigging_r_Finger_04_03SHJnt",
            "translation": [
                -0.0122760767117143,
                -4.97379917149652e-16,
                -1.42108543975646e-16
            ],
            "rotation": [
                2.77555756156289e-17,
                3.46944695195361e-18,
                -3.46944695195361e-18,
                1.0
            ],
            "scale": [
                1.0,
                1.0,
                1.0
            ]
        },
        {
            "name": "warrior_rigging_r_Thumb_01_01SHJnt",
            "translation": [
                -0.0501431412994862,
                0.0480475947260857,
                -0.0633156970143318
            ],
            "rotation": [
                0.750844120979309,
                -0.109375208616257,
                -0.135858133435249,
                0.637034356594086
            ],
            "scale": [
                1.0,
                1.0,
                1.0
            ],
            "children": [
                56
            ]
        },
        {
            "name": "warrior_rigging_r_Thumb_01_02SHJnt",
            "translation": [
                -0.0187108479440212,
                9.94759834299305e-16,
                -0.00163422024343163
            ],
            "rotation": [
                2.77485313455324e-17,
                6.96701142728913e-18,
                0.00101316103246063,
                0.999999463558197
            ],
            "scale": [
                1.0,
                1.0,
                1.0
            ],
            "children": [
                57
            ]
        },
        {
            "name": "warrior_rigging_r_Thumb_01_03SHJnt",
            "translation": [
                -0.0164274480193853,
                3.1974421732776e-16,
                -1.06581407981735e-16
            ],
            "rotation": [
                0.0,
                0.0,
                0.00050251028733328,
                0.99999988079071
            ],
            "scale": [
                1.0,
                1.0,
                1.0
            ]
        },
        {
            "name": "warrior_rigging_Neck_01SHJnt",
            "translation": [
                0.0940394178032875,
                0.010240288451314,
                3.64699844794814e-05
            ],
            "rotation": [
                -0.481953740119934,
                0.0307944994419813,
                -0.0840300247073174,
                0.871614158153534
            ],
            "scale": [
                1.0,
                1.0,
                1.0
            ],
            "children": [
                59
            ]
        },
        {
            "name": "warrior_rigging_Neck_TopSHJnt",
            "translation": [
                0.0440003573894501,
                -4.24264690082055e-05,
                -0.000136645146994852
            ],
            "rotation": [
                0.0416697524487972,
                -0.00238493224605918,
                0.0570908263325691,
                0.997496128082275
            ],
            "scale": [
                1.0,
                1.0,
                1.0
            ],
            "children": [
                60,
                62
            ]
        },
        {
            "name": "warrior_rigging_Head_JawSHJnt",
            "translation": [
                -0.00313356867991388,
                -0.0702049136161804,
                -2.2862034256832e-06
            ],
            "rotation": [
                4.58955146314111e-05,
                -9.1663141574827e-06,
                -0.708088517189026,
                0.70612370967865
            ],
            "scale": [
                1.0,
                1.0,
                1.0
            ],
            "children": [
                61
            ]
        },
        {
            "name": "warrior_rigging_Head_JawEndSHJnt",
            "translation": [
                0.0283811818808317,
                -0.0306405983865261,
                -3.55271359939116e-17
            ],
            "rotation": [
                -1.04083408558608e-17,
                3.61111864572607e-35,
                -3.46944695195361e-18,
                1.0
            ],
            "scale": [
                1.0,
                1.0,
                1.0
            ]
        },
        {
            "name": "warrior_rigging_Head_TopSHJnt",
            "translation": [
                0.250874370336533,
                6.42388840788044e-05,
                2.11538772418862e-05
            ],
            "rotation": [
                2.59127355093369e-05,
                -3.89737033401616e-05,
                0.000118363430374302,
                1.0
            ],
            "scale": [
                1.0,
                1.0,
                1.0
            ],
            "children": [
                63,
                64
            ]
        },
        {
            "name": "warrior_rigging_l_Eye_01SHJnt",
            "translation": [
                -0.189696937799454,
                -0.0521258860826492,
                -0.0363554581999779
            ],
            "rotation": [
                0.133023321628571,
                0.146691977977753,
                -0.726107001304626,
                0.658448874950409
            ],
            "scale": [
                1.0,
                1.0,
                1.0
            ]
        },
        {
            "name": "warrior_rigging_r_Eye_01SHJnt",
            "translation": [
                -0.189696937799454,
                -0.0521258860826492,
                0.0363554581999779
            ],
            "rotation": [
                0.133023321628571,
                0.146691977977753,
                -0.726107001304626,
                0.658448874950409
            ],
            "scale": [
                1.0,
                1.0,
                1.0
            ]
        },
        {
            "name": "warrior_rigging_l_Leg_HipSHJnt",
            "translation": [
                -0.00336982356384397,
                -3.55271359939116e-17,
                -0.0958522483706474
            ],
            "rotation": [
                0.0537426844239235,
                0.788041710853577,
                -0.603778004646301,
                -0.107490234076977
            ],
            "scale": [
                1.0,
                1.0,
                1.0
            ],
            "children": [
                66
            ]
        },
        {
            "name": "warrior_rigging_l_Leg_KneeSHJnt",
            "translation": [
                0.353386044502258,
                -3.37507795250883e-16,
                3.28625998348387e-15
            ],
            "rotation": [
                0.0,
                5.43752821613452e-06,
                0.0,
                1.0
            ],
            "scale": [
                1.0,
                1.0,
                1.0
            ],
            "children": [
                67
            ]
        },
        {
            "name": "warrior_rigging_l_Leg_AnkleSHJnt",
            "translation": [
                0.457346558570862,
                -3.7303492462735e-16,
                4.18332039066891e-15
            ],
            "rotation": [
                -0.152882218360901,
                -0.103637002408504,
                -0.0172639191150665,
                0.98264354467392
            ],
            "scale": [
                1.0,
                1.0,
                1.0
            ],
            "children": [
                68
            ]
        },
        {
            "name": "warrior_rigging_l_Leg_BallSHJnt",
            "translation": [
                0.0718891844153404,
                -1.5987210866388e-16,
                0.131125539541245
            ],
            "rotation": [
                6.60000296193175e-05,
                -0.708786845207214,
                -0.000227089738473296,
                0.705422699451447
            ],
            "scale": [
                1.0,
                1.0,
                1.0
            ],
            "children": [
                69
            ]
        },
        {
            "name": "warrior_rigging_l_Leg_ToeSHJnt",
            "translation": [
                0.0718891844153404,
                -5.32907039908674e-17,
                1.3114509379123e-17
            ],
            "rotation": [
                -5.42101086242752e-20,
                3.00926553810506e-36,
                -5.55111512312578e-17,
                1.0
            ],
            "scale": [
                1.0,
                1.0,
                1.0
            ]
        },
        {
            "name": "warrior_rigging_r_Leg_HipSHJnt",
            "translation": [
                -0.00336982356384397,
                0.0,
                0.0958522483706474
            ],
            "rotation": [
                -0.660099029541016,
                0.0792627409100533,
                0.111261673271656,
                0.738652527332306
            ],
            "scale": [
                1.0,
                1.0,
                1.0
            ],
            "children": [
                71
            ]
        },
        {
            "name": "warrior_rigging_r_Leg_KneeSHJnt",
            "translation": [
                -0.353386044502258,
                -1.42108543975646e-16,
                -1.06581407981735e-16
            ],
            "rotation": [
                -9.64055933346282e-20,
                0.108529716730118,
                8.8304053290904e-19,
                0.994093179702759
            ],
            "scale": [
                1.0,
                1.0,
                1.0
            ],
            "children": [
                72
            ]
        },
        {
            "name": "warrior_rigging_r_Leg_AnkleSHJnt",
            "translation": [
                -0.457346558570862,
                1.06581407981735e-16,
                -8.88178366760566e-17
            ],
            "rotation": [
                -0.158385738730431,
                -0.0662421584129333,
                -0.124548316001892,
                0.977248013019562
            ],
            "scale": [
                1.0,
                1.0,
                1.0
            ],
            "children": [
                73
            ]
        },
        {
            "name": "warrior_rigging_r_Leg_BallSHJnt",
            "translation": [
                -0.0718891844153404,
                -3.55271359939116e-17,
                -0.131125539541245
            ],
            "rotation": [
                1.04708703929646e-08,
                -0.70710676908493,
                1.04708703929646e-08,
                0.70710676908493
            ],
            "scale": [
                1.0,
                1.0,
                1.0
            ],
            "children": [
                74
            ]
        },
        {
            "name": "warrior_rigging_r_Leg_ToeSHJnt",
            "translation": [
                -0.0718891844153404,
                -3.55271359939116e-17,
                2.84463144405025e-17
            ],
            "rotation": [
                -3.67341984631965e-40,
                -1.32348898008484e-23,
                -2.77555756156289e-17,
                1.0
            ],
            "scale": [
                1.0,
                1.0,
                1.0
            ]
        },
        {
            "name": "warrior_rigging_Cloth_01_01SHJnt",
            "translation": [
                0.0940000787377357,
                -0.11843940615654,
                -0.023476442322135
            ],
            "rotation": [
                0.000675155024509877,
                0.997411847114563,
                0.0714126974344254,
                -0.00832595955580473
            ],
            "scale": [
                1.0,
                1.0,
                1.0
            ],
            "children": [
                76
            ]
        },
        {
            "name": "warrior_rigging_Cloth_01_02SHJnt",
            "translation": [
                0.079889327287674,
                -0.0189670696854591,
                -3.55271346704226e-16
            ],
            "rotation": [
                6.70288358151083e-09,
                9.47935695876367e-05,
                -7.07103172317147e-05,
                1.0
            ],
            "scale": [
                1.0,
                1.0,
                1.0
            ],
            "children": [
                77
            ]
        },
        {
            "name": "warrior_rigging_Cloth_01_03SHJnt",
            "translation": [
                0.0944662243127823,
                1.42108543975646e-16,
                -4.7961631275675e-16
            ],
            "rotation": [
                3.52308547877462e-18,
                -2.41729141075964e-18,
                0.0218417458236217,
                0.999761462211609
            ],
            "scale": [
                1.0,
                1.0,
                1.0
            ],
            "children": [
                78
            ]
        },
        {
            "name": "warrior_rigging_Cloth_01_04SHJnt",
            "translation": [
                0.105103954672813,
                0.0,
                -5.24025244329668e-16
            ],
            "rotation": [
                -1.80039334480739e-18,
                2.55708741582294e-18,
                0.0254534278064966,
                0.999675989151001
            ],
            "scale": [
                1.0,
                1.0,
                1.0
            ]
        },
        {
            "name": "warrior_rigging_Sword_cover_01_01SHJnt",
            "translation": [
                0.00995245110243559,
                0.106541395187378,
                0.108636118471622
            ],
            "rotation": [
                0.714444935321808,
                0.697530150413513,
                0.00882960297167301,
                -0.0542418137192726
            ],
            "scale": [
                1.0,
                1.0,
                1.0
            ]
        },
        {
            "name": "Stage",
            "translation": [
                0.0,
                0.0,
                0.0
            ],
            "rotation": [
                0.0,
                0.0,
                0.0,
                1.0
            ],
            "scale": [
                1.0,
                1.0,
                1.0
            ],
            "mesh": 1
        },
        {
            "name": "grass",
            "translation": [
                0.0,
                0.0,
                0.0
            ],
            "rotation": [
                0.0,
                0.0,
                0.0,
                1.0
            ],
            "scale": [
                1.0,
                1.0,
                1.0
            ],
            "mesh": 2
        },
        {
            "name": "warrior_lowpoly:warrior3dmodel",
            "translation": [
                0.0,
                0.0,
                0.0
            ],
            "rotation": [
                0.0,
                0.0,
                0.0,
                1.0
            ],
            "scale": [
                1.0,
                1.0,
                1.0
            ],
            "mesh": 3,
            "skin": 0
        }
    ]
}